<svg width="40" height="40" fill="none" xmlns="http://www.w3.org/2000/svg"><rect rx="7.5" width="39" height="39" transform="translate(.5 .5)" fill="#FFF6EE"/><path d="M14 11h12a4 4 0 0 1 1.5 7.71V15a1.5 1.5 0 0 0-1.5-1.5H14a1.5 1.5 0 0 0-1.5 1.5v3.71A4.001 4.001 0 0 1 14 11Zm12 4v12a2 2 0 0 1-2 2h-8a2 2 0 0 1-2-2V15h12Zm-5.25 8.19V19c0-.42-.33-.75-.75-.75s-.75.33-.75.75v4.19l-.72-.72a.743.743 0 0 0-1.06 0 .743.743 0 0 0 0 1.06l1.293 1.293q.133.134.288.234.137.088.29.15.153.063.312.095.17.034.347.034.177 0 .347-.034.159-.032.311-.094.154-.063.291-.151.155-.1.288-.234l1.293-1.293a.743.743 0 0 0 0-1.06.743.743 0 0 0-1.06 0l-.72.72Z" clip-rule="evenodd" fill="#FFB26A" fill-rule="evenodd"/></svg>