<svg width="40" height="40" fill="none" xmlns="http://www.w3.org/2000/svg"><rect rx="7.5" width="39" height="39" transform="translate(.5 .5)" fill="#E9FBFF"/><path d="M26 12H14a4 4 0 0 0-4 4v8a4 4 0 0 0 4 4h7a1 1 0 0 0 1-1v-1a4 4 0 0 1 4-4h3a1 1 0 0 0 1-1v-5a4 4 0 0 0-4-4Zm-13 4a1 1 0 1 0 2 0 1 1 0 0 0-2 0Zm7 6a2 2 0 1 1 0-4 2 2 0 0 1 0 4Zm7.75 2a.75.75 0 0 0-1.5 0v1.25H25a.75.75 0 0 0 0 1.5h1.25V28a.75.75 0 0 0 1.5 0v-1.25H29a.75.75 0 0 0 0-1.5h-1.25V24Z" clip-rule="evenodd" fill="#72DEF6" fill-rule="evenodd"/></svg>